<?xml version="1.0" standalone="no"?>
<!DOCTYPE svg PUBLIC "-//W3C//DTD SVG 20010904//EN"
 "http://www.w3.org/TR/2001/REC-SVG-20010904/DTD/svg10.dtd">
<svg version="1.0" xmlns="http://www.w3.org/2000/svg"
 width="700.000000pt" height="700.000000pt" viewBox="0 0 700.000000 700.000000"
 preserveAspectRatio="xMidYMid meet">
<metadata>
Created by potrace 1.11, written by Peter Selinger 2001-2013
</metadata>
<g transform="translate(0.000000,700.000000) scale(0.100000,-0.100000)"
fill="#000000" stroke="none">
<path d="M2545 6532 c-166 -14 -329 -89 -450 -208 -110 -108 -133 -151 -255
-484 -46 -124 -86 -228 -89 -232 -4 -4 -209 -8 -456 -8 -397 -1 -461 -3 -546
-20 -341 -66 -625 -333 -721 -675 l-23 -80 -2 -1755 c-1 -1089 2 -1778 8
-1815 33 -206 131 -390 285 -535 158 -148 340 -229 554 -248 47 -4 1260 -7
2695 -6 2831 1 2679 -2 2836 53 245 84 470 310 566 566 9 22 24 78 34 125 17
81 18 167 16 1845 -1 968 -5 1770 -9 1783 -4 12 -14 50 -23 85 -74 288 -354
568 -644 643 -34 8 -71 18 -83 21 -13 4 -239 8 -503 10 -264 3 -483 7 -486 11
-3 4 -41 102 -84 217 -131 354 -148 388 -249 489 -87 87 -250 183 -337 200
-13 2 -37 8 -54 12 -27 7 -1904 13 -1980 6z m1186 -1882 c467 -63 877 -329
1154 -750 115 -175 208 -428 231 -625 3 -33 8 -69 10 -80 5 -24 5 -290 0 -325
-2 -14 -7 -50 -10 -80 -4 -30 -12 -75 -18 -100 -5 -25 -12 -56 -14 -68 -3 -13
-20 -67 -38 -120 -84 -245 -204 -431 -407 -632 -324 -321 -702 -472 -1164
-464 -220 3 -324 20 -500 79 -407 137 -767 460 -956 855 -34 72 -86 209 -93
247 -2 10 -9 36 -15 58 -11 42 -29 152 -37 220 -5 53 -5 291 1 335 2 19 7 58
10 85 9 68 43 205 70 282 13 35 21 63 19 63 -2 0 25 57 60 126 254 492 721
830 1236 893 160 20 319 20 461 1z"/>
<path d="M3488 4086 c-1 -2 -39 -6 -83 -9 -101 -8 -121 -12 -225 -44 -99 -30
-158 -58 -255 -121 -84 -55 -246 -215 -298 -295 -67 -101 -125 -231 -143 -317
-3 -14 -10 -45 -16 -70 -17 -73 -18 -275 -2 -374 66 -404 383 -746 778 -842
235 -57 503 -30 706 70 317 157 542 459 588 786 9 64 8 276 -1 335 -33 208
-134 404 -290 560 -137 137 -264 218 -423 268 -94 30 -124 35 -229 43 -44 3
-85 7 -92 9 -6 2 -13 2 -15 1z"/>
</g>
</svg>
